<svg xmlns="http://www.w3.org/2000/svg" width="24" height="24" viewBox="0 0 24 24"><defs><linearGradient id="prefix__a" x1="50%" x2="50%" y1="109.021%" y2="16.275%"><stop offset="0%" stop-color="#FFFF3C" stop-opacity="0"></stop><stop offset="11%" stop-color="#FFFF3C" stop-opacity=".03"></stop><stop offset="29%" stop-color="#FFFF3C" stop-opacity=".13"></stop><stop offset="51%" stop-color="#FFFF3C" stop-opacity=".28"></stop><stop offset="77%" stop-color="#FFFF3C" stop-opacity=".49"></stop><stop offset="100%" stop-color="#FFFF3C" stop-opacity=".7"></stop></linearGradient><linearGradient id="prefix__b" x1="50%" x2="50%" y1="-94.628%" y2="141.537%"><stop offset="67%" stop-color="#FFFF80" stop-opacity=".8"></stop><stop offset="100%" stop-color="#FFFF80" stop-opacity=".8"></stop></linearGradient><linearGradient id="prefix__c" x1="50.016%" x2="50.016%" y1="-981.641%" y2="201.184%"><stop offset="67%" stop-color="#FFFF80" stop-opacity=".8"></stop><stop offset="100%" stop-color="#FFFF80" stop-opacity=".8"></stop></linearGradient><linearGradient id="prefix__d" x1="50%" x2="50%" y1="1.758%" y2="109.189%"><stop offset="46%" stop-color="#FFFF3C" stop-opacity="0"></stop><stop offset="72%" stop-color="#FFFF3C" stop-opacity=".36"></stop><stop offset="91%" stop-color="#FFFF3C" stop-opacity=".6"></stop><stop offset="100%" stop-color="#FFFF3C" stop-opacity=".7"></stop></linearGradient><linearGradient id="prefix__e" x1="49.98%" x2="49.98%" y1="1.779%" y2="109.19%"><stop offset="67%" stop-color="#FFFF80" stop-opacity=".8"></stop><stop offset="100%" stop-color="#FFFF80" stop-opacity=".8"></stop></linearGradient><linearGradient id="prefix__f" x1="50%" x2="50%" y1="4.907%" y2="299.577%"><stop offset="67%" stop-color="#FFFF80" stop-opacity=".8"></stop><stop offset="100%" stop-color="#FFFF80" stop-opacity=".8"></stop></linearGradient><linearGradient id="prefix__g" x1="454.5%" x2="454.5%" y1="-61.757%" y2="115.135%"><stop offset="67%" stop-color="#FFFF80" stop-opacity=".8"></stop><stop offset="100%" stop-color="#FFFF80" stop-opacity=".8"></stop></linearGradient><linearGradient id="prefix__h" x1="50%" x2="50%" y1="1.777%" y2="109.222%"><stop offset="46%" stop-color="#FFFF3C" stop-opacity="0"></stop><stop offset="72%" stop-color="#FFFF3C" stop-opacity=".36"></stop><stop offset="91%" stop-color="#FFFF3C" stop-opacity=".6"></stop><stop offset="100%" stop-color="#FFFF3C" stop-opacity=".7"></stop></linearGradient><linearGradient id="prefix__i" x1="49.5%" x2="49.5%" y1="1.778%" y2="109.192%"><stop offset="46%" stop-color="#FFFF3C" stop-opacity="0"></stop><stop offset="72%" stop-color="#FFFF3C" stop-opacity=".36"></stop><stop offset="91%" stop-color="#FFFF3C" stop-opacity=".6"></stop><stop offset="100%" stop-color="#FFFF3C" stop-opacity=".7"></stop></linearGradient></defs><g fill="none" fill-rule="evenodd"><path fill="#FFF" d="M0 0H24V24H0z"></path><g fill-rule="nonzero"><path fill="#7F3E0F" d="M1.053 1.829L5.115 0.686 8.146 0 8.633 0.686 8.633 14.4 9.672 13.714 10.16 14.4 10.16 18.057 1.602 18.057 1.102 17.371 1.602 14.4 3.36 14.4 3.36 4.343 1.053 4.343 0.553 3.657z" transform="translate(2.667 2.914)"></path><path fill="#EDBC35" d="M0.553 1.143L4.615 0 8.146 0 8.146 13.714 9.684 13.714 9.684 17.371 1.102 17.371 1.102 13.714 2.857 13.714 2.857 3.657 0.553 3.657z" transform="translate(2.667 2.914)"></path><path fill="#D89A2C" d="M7.982 0h.164v13.726h-.164V0zm1.536 13.714v3.445H1.102v.228h8.582v-3.673h-.166zM2.845 3.444H.553v.23h2.292v-.23z" transform="translate(2.667 2.914)"></path><path fill="url(#prefix__a)" d="M1.495 16.901L1.495 14.199 3.252 14.199 3.252 3.184 0.946 3.184 0.946 1.522 4.659 0.482 7.753 0.482 7.753 14.199 9.289 14.199 9.289 16.901z" transform="translate(2.667 2.914)"></path><path fill="url(#prefix__b)" d="M7.592 0.482H8.591999999999999V14.013H7.592z" opacity=".5" transform="translate(2.667 2.914)"></path><path fill="url(#prefix__c)" d="M9.131 14.199L9.131 16.715 1.495 16.715 1.495 16.901 9.289 16.901 9.289 14.199z" opacity=".5" transform="translate(2.667 2.914)"></path><path fill="url(#prefix__d)" d="M0.946 1.522L0.946 3.184 3.252 3.184 3.252 7.895 7.753 6.761 7.753 0.482 4.659 0.482z" transform="translate(2.667 2.914)"></path><path fill="url(#prefix__e)" d="M3.742 6.965l2.629-4.88v4.219l-2.629.66zM1.597.496L.166 2.726h1.706v1.468L4.974.025H3.267l-1.67.471z" opacity=".5" transform="translate(2.667 2.914) translate(1.382 .457)"></path><g opacity=".5"><path fill="url(#prefix__f)" d="M0.273 1.275L3.986 0.235 6.858 0.235 6.858 0.025 3.764 0.025 0.051 1.065 0.051 2.727 0.273 2.727z" transform="translate(2.667 2.914) translate(.895 .457)"></path><path fill="url(#prefix__g)" d="M2.58 2.937L2.358 2.937 2.358 7.438 2.58 7.383z" transform="translate(2.667 2.914) translate(.895 .457)"></path></g><path fill="url(#prefix__h)" d="M1.168 1.733L4.881 0.693 7.753 0.693 7.753 0.482 4.659 0.482 0.946 1.522 0.946 3.184 1.168 3.184z" transform="translate(2.667 2.914)"></path><path fill="url(#prefix__i)" d="M3.474 3.394L3.252 3.394 3.252 7.895 3.474 7.84z" transform="translate(2.667 2.914)"></path></g><g fill-rule="nonzero"><path fill="#E90D3A" d="M.191 3.56c-.007-.877.277-2.11.965-2.81.738-.75 1.67-.863 2.45-.59.85.3 1.285 1.075 1.359 2.046.9-.745 1.868-1.337 3.03-1.397 1.331-.07 2.414.805 2.596 1.926.205 1.26-.151 2.25-.802 3.06C7.72 8.379 3.604 9.513 2.068 8.4 1.075 7.68.209 5.723.19 3.56z" transform="translate(10.819 12.19)"></path><path fill="#D10B3A" d="M4.632 2.415l.332-.209C4.89 1.256 4.49.538 3.737.213c.587.525.981 1.304.895 2.202zM10.591 2.736c-.07-.444-.222-.696-.433-.982.207.622.575 1.912-.89 3.605C7.75 7.113 5.376 8.57 3.262 8.803 5.35 8.93 8.227 7.747 9.79 5.796c.649-.81 1.007-1.753.8-3.06z" transform="translate(10.819 12.19)"></path><path fill="#FFF" d="M2.422 5.196c-.661.239-.824.87-1.115.767-.66-.235-.914-1.636-.93-2.049C.294 1.762 1.565.724 2.034.55c.456-.17.95-.123 1.288.135.316.242.487.623.62 1.02.081.248.072.82.357.927.32.121.909-.409 1.188-.61.534-.384 1.141-.702 1.78-.822 1.03-.192 1.781.23 2.299.97.077.112.148.227.193.357.257.738-.295 1.7-1.004 2.173-.623.416-1.36.777-2.054.678-1.132-.164-2.298-.897-4.279-.182z" opacity=".25" transform="translate(10.819 12.19)"></path><path fill="#FFF" d="M1.982.83c-.258.116-.487.39-.527.703-.034.259.066.32.135.351.07.033.168.003.244-.053.078-.055.14-.13.206-.2.151-.16.335-.296.534-.36.141-.046.285-.175.218-.312-.074-.155-.327-.347-.81-.13zM6.747 1.67c-.144.066-.295.173-.327.314-.03.128.056.24.167.297.11.057.246.073.372.104.427.104.774.399.927.79.1.255.164.591.46.647.2.037.431-.089.558-.26.126-.173.164-.38.167-.574.01-1.115-1.143-1.87-2.324-1.319z" opacity=".5" transform="translate(10.819 12.19)"></path></g></g></svg>