<svg xmlns="http://www.w3.org/2000/svg" width="24" height="24" viewBox="0 0 24 24"><defs><linearGradient id="prefix__a" x1="50%" x2="50%" y1="109.024%" y2="16.341%"><stop offset="0%" stop-color="#FFF" stop-opacity="0"></stop><stop offset="11%" stop-color="#FFF" stop-opacity=".03"></stop><stop offset="29%" stop-color="#FFF" stop-opacity=".13"></stop><stop offset="51%" stop-color="#FFF" stop-opacity=".28"></stop><stop offset="77%" stop-color="#FFF" stop-opacity=".49"></stop><stop offset="100%" stop-color="#FFF" stop-opacity=".7"></stop></linearGradient><linearGradient id="prefix__b" x1="50%" x2="50%" y1="-1207.138%" y2="247.335%"><stop offset="67%" stop-color="#FFF" stop-opacity=".8"></stop><stop offset="100%" stop-color="#FFF" stop-opacity=".8"></stop></linearGradient><linearGradient id="prefix__c" x1="50%" x2="50%" y1="-4065.923%" y2="489.537%"><stop offset="67%" stop-color="#FFF" stop-opacity=".8"></stop><stop offset="100%" stop-color="#FFF" stop-opacity=".8"></stop></linearGradient><linearGradient id="prefix__d" x1="50.021%" x2="50.021%" y1="1.887%" y2="109.282%"><stop offset="46%" stop-color="#FFF" stop-opacity="0"></stop><stop offset="72%" stop-color="#FFF" stop-opacity=".36"></stop><stop offset="91%" stop-color="#FFF" stop-opacity=".6"></stop><stop offset="100%" stop-color="#FFF" stop-opacity=".7"></stop></linearGradient><linearGradient id="prefix__e" x1="49.941%" x2="49.941%" y1="1.918%" y2="109.312%"><stop offset="67%" stop-color="#FFF" stop-opacity=".8"></stop><stop offset="100%" stop-color="#FFF" stop-opacity=".8"></stop></linearGradient><linearGradient id="prefix__f" x1="50.011%" x2="50.011%" y1="1.703%" y2="109.169%"><stop offset="67%" stop-color="#FFF" stop-opacity=".8"></stop><stop offset="100%" stop-color="#FFF" stop-opacity=".8"></stop></linearGradient></defs><g fill="none" fill-rule="evenodd"><path fill="#FFF" d="M0 0H24V24H0z"></path><g fill-rule="nonzero"><path fill="#545454" d="M.635 14.974c1.01-.983 1.933-1.918 2.77-2.805.839-.887 1.563-1.706 2.172-2.457.52-.627.993-1.292 1.415-1.989.335-.571.504-1.037.505-1.396 0-.58-.112-1.001-.331-1.262-.556-.522-1.422-.522-1.977 0-.22.26-.33.681-.33 1.262v1.118H.974l-.636-.686.636-4.597c.354-.203.724-.38 1.106-.525.463-.177.936-.33 1.415-.458.57-.154 1.15-.27 1.735-.347C5.85.749 6.474.708 7.1.709c1.828 0 3.2.428 4.114 1.284.914.857 1.367 2.113 1.36 3.77.003.897-.186 1.784-.553 2.603-.377.84-.848 1.634-1.404 2.368-.57.753-1.196 1.462-1.872 2.12-.676.664-1.326 1.285-1.947 1.866h2.365v-1.296l3.143-.697.636.697v4.96H.635L0 17.687l.635-2.713z" transform="translate(2.42 2.667)"></path><path fill="#CFCFCF" d="M0 14.277c1.007-.983 1.93-1.918 2.77-2.805.84-.887 1.564-1.706 2.172-2.457.52-.628.992-1.292 1.415-1.989.336-.573.505-1.037.505-1.396 0-.58-.11-1.001-.332-1.262-.556-.522-1.421-.522-1.977 0-.22.26-.329.681-.329 1.262v1.117H.338V1.454c.355-.204.725-.38 1.107-.526.463-.177.935-.33 1.414-.457C3.43.316 4.01.2 4.594.123 5.214.041 5.84 0 6.464 0c1.829 0 3.2.428 4.114 1.285.915.856 1.368 2.12 1.36 3.792.003.897-.185 1.785-.553 2.603-.377.84-.847 1.634-1.403 2.368-.57.752-1.195 1.461-1.87 2.121-.678.663-1.328 1.285-1.95 1.865h2.366v-1.3h3.778v4.96H0v-3.417z" transform="translate(2.42 2.667)"></path><path fill="url(#prefix__a)" d="M.416 17.214v-2.716c.95-.93 1.829-1.828 2.638-2.672.84-.887 1.58-1.723 2.194-2.484.533-.65 1.02-1.338 1.454-2.057.388-.661.576-1.205.576-1.667 0-.706-.151-1.243-.457-1.6-.34-.343-.804-.537-1.287-.537-.484 0-.947.194-1.287.537-.297.352-.457.89-.457 1.6v.638H.766v-4.5c.266-.14.54-.264.82-.373.45-.176.907-.328 1.372-.457C3.512.776 4.075.664 4.645.59 5.25.51 5.862.47 6.473.47c1.726 0 3.02.396 3.845 1.176.825.78 1.204 1.883 1.204 3.415.006.824-.164 1.64-.498 2.395-.362.806-.814 1.568-1.349 2.272-.557.735-1.168 1.427-1.828 2.07-.67.655-1.321 1.28-1.94 1.86l-.915.854h3.952v-1.296h2.946v3.998H.416z" transform="translate(2.42 2.667)"></path><path fill="url(#prefix__b)" d="M5.744 13.486l-.914.852h.34l.727-.685c.62-.579 1.271-1.205 1.94-1.859.661-.643 1.272-1.336 1.83-2.07.533-.704.986-1.467 1.348-2.273.334-.747.507-1.556.507-2.374 0-1.434-.35-2.499-1.06-3.26.605.748.903 1.762.903 3.086.001.821-.17 1.634-.506 2.384-.361.806-.814 1.568-1.348 2.272-.557.735-1.168 1.427-1.829 2.07-.667.652-1.32 1.276-1.938 1.857z" opacity=".5" transform="translate(2.42 2.667)"></path><path fill="url(#prefix__c)" d="M11.733 13.216L11.733 17.04 0.416 17.04 0.416 17.214 11.89 17.214 11.89 13.216z" opacity=".5" transform="translate(2.42 2.667)"></path><path fill="#B1B1B1" d="M10.955 1.703c.654.832.983 1.952.983 3.369.003.897-.185 1.785-.553 2.603-.377.84-.847 1.635-1.403 2.368-.57.753-1.195 1.462-1.87 2.122-.56.546-1.399 1.371-1.918 1.853h-.557c.621-.58 1.57-1.504 2.249-2.167.675-.659 1.3-1.368 1.87-2.12.557-.734 1.029-1.528 1.405-2.369.365-.819.552-1.706.549-2.603 0-1.245-.252-2.264-.755-3.056zM4.224 5.63c0-.58.11-1.001.33-1.262.251-.273.614-.417.984-.39.336-.02.665.096.915.321-.225-.349-.594-.58-1.006-.627-.413-.047-.825.093-1.122.383-.229.26-.33.686-.33 1.264v1.115H.338v.313h3.886V5.63zm7.856 7.104v4.647H0v.313h12.306v-4.96h-.226z" transform="translate(2.42 2.667)"></path><path fill="url(#prefix__d)" d="M10.318 1.648C9.493.868 8.198.473 6.473.473c-.611 0-1.222.039-1.828.119-.57.075-1.133.187-1.687.336-.465.13-.923.282-1.372.457-.28.11-.554.234-.82.373V6.27h3.042v-.638c0-.706.15-1.243.457-1.6.34-.344.804-.537 1.287-.537.483 0 .947.193 1.287.537.297.352.457.89.457 1.6 0 .457-.187 1.006-.576 1.666-.128.229-.277.457-.441.686l4.974-1.175c.176-.562.265-1.148.265-1.737.004-1.531-.391-2.647-1.2-3.424z" transform="translate(2.42 2.667)"></path><path fill="url(#prefix__e)" d="M.263 5.99H.034V1.48c.267-.14.54-.264.82-.373.45-.175.908-.328 1.372-.457C2.781.5 3.344.388 3.913.313 4.52.233 5.13.193 5.742.194c1.725 0 3.02.396 3.844 1.175.023.023.044.048.064.071C8.823.754 7.593.405 5.977.405 5.366.404 4.755.443 4.15.523 3.58.598 3.017.71 2.464.86c-.465.13-.922.282-1.371.458-.28.109-.554.233-.821.372l-.01 4.302zm5.943 1.24c.386-.66.576-1.205.576-1.667 0-.706-.151-1.243-.457-1.6-.079-.094-.17-.177-.27-.246.012.01.024.023.034.036.297.352.457.89.457 1.6 0 .457-.187 1.006-.576 1.666-.128.229-.276.458-.44.686l.44-.105c.078-.121.158-.25.229-.37h.007z" opacity=".5" transform="translate(2.42 2.667) translate(.738 .277)"></path><path fill="url(#prefix__f)" d="M8.137.63L5.995 3.544c-.15-.032-.303-.047-.457-.046-.488-.027-.962.17-1.287.537-.297.352-.457.89-.457 1.6v.638H.766v-1.11c.756-1.36 1.636-2.95 2.352-4.26C3.623.774 4.135.675 4.65.607 5.258.526 5.87.486 6.48.486 7.036.482 7.59.53 8.137.632zm3.09 2.465c-.182-.547-.496-1.04-.914-1.438-.104-.1-.214-.19-.331-.274l-3.3 6.507 2.022-.48 2.523-4.315z" transform="translate(2.42 2.667)"></path></g><g fill-rule="nonzero"><path fill="#E90D3A" d="M.191 3.56c-.007-.877.277-2.11.965-2.81.738-.75 1.67-.863 2.45-.59.85.3 1.285 1.075 1.359 2.046.9-.745 1.868-1.337 3.03-1.397 1.331-.07 2.414.805 2.596 1.926.205 1.26-.151 2.25-.802 3.06C7.72 8.379 3.604 9.513 2.068 8.4 1.075 7.68.209 5.723.19 3.56z" transform="translate(10.819 12.19)"></path><path fill="#D10B3A" d="M4.632 2.415l.332-.209C4.89 1.256 4.49.538 3.737.213c.587.525.981 1.304.895 2.202zM10.591 2.736c-.07-.444-.222-.696-.433-.982.207.622.575 1.912-.89 3.605C7.75 7.113 5.376 8.57 3.262 8.803 5.35 8.93 8.227 7.747 9.79 5.796c.649-.81 1.007-1.753.8-3.06z" transform="translate(10.819 12.19)"></path><path fill="#FFF" d="M2.422 5.196c-.661.239-.824.87-1.115.767-.66-.235-.914-1.636-.93-2.049C.294 1.762 1.565.724 2.034.55c.456-.17.95-.123 1.288.135.316.242.487.623.62 1.02.081.248.072.82.357.927.32.121.909-.409 1.188-.61.534-.384 1.141-.702 1.78-.822 1.03-.192 1.781.23 2.299.97.077.112.148.227.193.357.257.738-.295 1.7-1.004 2.173-.623.416-1.36.777-2.054.678-1.132-.164-2.298-.897-4.279-.182z" opacity=".25" transform="translate(10.819 12.19)"></path><path fill="#FFF" d="M1.982.83c-.258.116-.487.39-.527.703-.034.259.066.32.135.351.07.033.168.003.244-.053.078-.055.14-.13.206-.2.151-.16.335-.296.534-.36.141-.046.285-.175.218-.312-.074-.155-.327-.347-.81-.13zM6.747 1.67c-.144.066-.295.173-.327.314-.03.128.056.24.167.297.11.057.246.073.372.104.427.104.774.399.927.79.1.255.164.591.46.647.2.037.431-.089.558-.26.126-.173.164-.38.167-.574.01-1.115-1.143-1.87-2.324-1.319z" opacity=".5" transform="translate(10.819 12.19)"></path></g></g></svg>