<svg xmlns="http://www.w3.org/2000/svg" width="24" height="24" viewBox="0 0 24 24"><defs><linearGradient id="prefix__a" x1="49.976%" x2="49.976%" y1="108.96%" y2="16.272%"><stop offset="0%" stop-color="#EFBC6D" stop-opacity="0"></stop><stop offset="12%" stop-color="#EFBC6D" stop-opacity=".04"></stop><stop offset="30%" stop-color="#EFBC6D" stop-opacity=".14"></stop><stop offset="54%" stop-color="#EFBC6D" stop-opacity=".3"></stop><stop offset="81%" stop-color="#EFBC6D" stop-opacity=".52"></stop><stop offset="100%" stop-color="#EFBC6D" stop-opacity=".7"></stop></linearGradient><linearGradient id="prefix__b" x1="49.979%" x2="49.979%" y1="-2542.922%" y2="521.143%"><stop offset="67%" stop-color="#EFD4AA" stop-opacity=".8"></stop><stop offset="100%" stop-color="#EFD4AA" stop-opacity=".8"></stop></linearGradient><linearGradient id="prefix__c" x1="51.333%" x2="51.333%" y1="-11536.801%" y2="1635.631%"><stop offset="67%" stop-color="#EFD4AA" stop-opacity=".8"></stop><stop offset="100%" stop-color="#EFD4AA" stop-opacity=".8"></stop></linearGradient><linearGradient id="prefix__d" x1="49.988%" x2="49.988%" y1="-2604.766%" y2="405.005%"><stop offset="67%" stop-color="#EFD4AA" stop-opacity=".8"></stop><stop offset="100%" stop-color="#EFD4AA" stop-opacity=".8"></stop></linearGradient><linearGradient id="prefix__e" x1="50.008%" x2="50.008%" y1="1.759%" y2="108.966%"><stop offset="46%" stop-color="#EFBC6D" stop-opacity="0"></stop><stop offset="70%" stop-color="#EFBC6D" stop-opacity=".33"></stop><stop offset="90%" stop-color="#EFBC6D" stop-opacity=".6"></stop><stop offset="100%" stop-color="#EFBC6D" stop-opacity=".7"></stop></linearGradient><linearGradient id="prefix__f" x1="50%" x2="50%" y1="1.734%" y2="109.151%"><stop offset="67%" stop-color="#EFD4AA" stop-opacity=".8"></stop><stop offset="100%" stop-color="#EFD4AA" stop-opacity=".8"></stop></linearGradient><linearGradient id="prefix__g" x1="50.038%" x2="50.038%" y1="1.773%" y2="109.193%"><stop offset="67%" stop-color="#EFD4AA" stop-opacity=".8"></stop><stop offset="100%" stop-color="#EFD4AA" stop-opacity=".8"></stop></linearGradient><linearGradient id="prefix__h" x1="49.979%" x2="49.979%" y1="1.779%" y2="109.278%"><stop offset="67%" stop-color="#EFD4AA" stop-opacity=".8"></stop><stop offset="100%" stop-color="#EFD4AA" stop-opacity=".8"></stop></linearGradient></defs><g fill="none" fill-rule="evenodd"><path fill="#FFF" d="M0 0H24V23.774H0z"></path><g fill-rule="nonzero"><path fill="#6F3547" d="M4.826 7.77h1.51c.538 0 .924-.132 1.157-.396.248-.31.372-.694.35-1.084 0-.574-.12-.99-.362-1.247-.62-.518-1.544-.518-2.164 0-.238.26-.362.683-.362 1.256v.378H.705L.01 5.983.705 2.14c.257-.148.564-.31.924-.48.416-.189.845-.349 1.285-.478.556-.16 1.123-.28 1.698-.355C5.33.732 6.054.687 6.779.692c1.995 0 3.503.43 4.523 1.291 1.021.86 1.534 2.075 1.538 3.642.009.455-.056.91-.19 1.346-.111.363-.271.711-.476 1.036-.18.282-.393.543-.636.778-.238.228-.45.414-.648.578v.228c.227.148.477.325.734.533.599.483 1.05 1.112 1.305 1.82.165.466.245.955.238 1.446.01.734-.126 1.463-.403 2.147-.262.638-.681 1.206-1.221 1.657-.6.49-1.302.85-2.06 1.059-.948.26-1.932.383-2.919.366-.686.006-1.372-.042-2.05-.145-.545-.084-1.083-.202-1.612-.356-.433-.124-.854-.288-1.254-.489-.328-.164-.646-.346-.953-.544L0 16.39l.695-4.002 3.553-.695.695.695v.623c0 .579.119.997.362 1.257.282.276.678.418 1.08.39.407.029.805-.118 1.084-.401.24-.266.36-.755.362-1.469.034-.437-.09-.872-.35-1.234-.238-.275-.614-.412-1.136-.412H4.826l-.695-.694.695-2.68z" transform="translate(2.712 2.604)"></path><path fill="#DD8062" d="M4.129 7.075h1.507c.538 0 .924-.132 1.157-.396.248-.31.372-.694.35-1.083 0-.574-.12-.99-.36-1.248-.62-.518-1.546-.518-2.166 0-.24.26-.36.679-.36 1.257v.378H.01V1.448c.254-.15.564-.31.923-.48C1.35.778 1.78.619 2.22.49 2.774.329 3.342.21 3.917.135 4.635.04 5.359-.005 6.083 0c1.996 0 3.504.43 4.524 1.291 1.02.86 1.533 2.075 1.538 3.642.023.84-.203 1.667-.652 2.388-.18.283-.393.544-.636.779-.238.228-.45.414-.647.578v.228c.226.148.476.325.73.532.277.223.523.478.734.758.243.328.436.688.574 1.068.165.465.245.954.238 1.446.01.733-.128 1.462-.405 2.146-.263.637-.681 1.205-1.22 1.658-.6.488-1.302.848-2.059 1.058-.95.26-1.934.383-2.921.367-.686.006-1.37-.043-2.048-.146-.546-.083-1.085-.202-1.614-.355-.432-.126-.852-.29-1.252-.49-.328-.163-.646-.345-.953-.544v-4.7h4.248v.623c0 .578.12.997.36 1.257.283.276.68.418 1.083.389.406.03.804-.117 1.083-.4.24-.268.36-.757.36-1.469.033-.437-.09-.873-.35-1.234-.234-.276-.612-.413-1.136-.412H4.133L4.13 7.075z" transform="translate(2.712 2.604)"></path><path fill="#C35F53" d="M4.257 5.985H.01v-.31h4v-.38c0-.578.12-.997.359-1.256.62-.518 1.546-.518 2.167 0 .067.074.124.157.169.246-.28-.227-.64-.341-1.005-.321-.403-.03-.8.113-1.083.389-.24.26-.36.678-.36 1.256v.376zm7.712.3c.133-.436.197-.89.19-1.345 0-1.304-.359-2.36-1.064-3.187.569.854.854 1.852.817 2.864.017.838-.215 1.664-.67 2.381-.179.282-.392.544-.635.779-.238.227-.45.416-.647.578v.227l.238.171v-.082c.197-.164.414-.355.647-.578.243-.235.457-.496.636-.778.207-.323.37-.668.488-1.03zm-5.288 4.471c-.037-.07-.08-.136-.131-.198-.233-.274-.612-.412-1.136-.412h-1.28v.312h1.528c.365-.022.726.084 1.014.298h.005zM4.455 13.34c-.143-.32-.208-.666-.193-1.013v-.624h-.238v.312c0 .579.12.997.36 1.257.02.024.042.047.066.068h.005zm7.79-2.08c-.137-.38-.33-.74-.574-1.068-.064-.087-.133-.166-.2-.244.516.719.782 1.574.76 2.445.01.734-.128 1.463-.405 2.147-.263.638-.68 1.206-1.219 1.66-.6.487-1.302.847-2.06 1.056-.948.26-1.932.383-2.918.366-1.242.015-2.478-.154-3.665-.5-.433-.125-.852-.289-1.252-.49-.255-.132-.488-.26-.698-.39v.158c.307.198.625.38.953.544.4.2.82.364 1.252.49.53.153 1.068.271 1.614.354.677.103 1.362.152 2.048.146.987.017 1.972-.107 2.921-.366.757-.21 1.46-.57 2.06-1.059.538-.452.956-1.02 1.219-1.657.277-.684.415-1.413.405-2.147.005-.492-.078-.98-.246-1.445h.005z" transform="translate(2.712 2.604)"></path><path fill="url(#prefix__a)" d="M5.869 17.465c-.662.005-1.324-.042-1.979-.141-.526-.08-1.046-.194-1.557-.342-.406-.114-.8-.267-1.176-.455-.255-.13-.476-.257-.69-.385v-3.958H3.8v.143c0 .706.164 1.24.49 1.594.365.367.881.562 1.41.532.534.03 1.053-.17 1.414-.548.329-.364.476-.952.476-1.799.036-.553-.128-1.1-.464-1.552-.324-.38-.821-.572-1.478-.572h-1.06V7.556h1.05c.67 0 1.172-.187 1.493-.553.33-.4.5-.899.476-1.407 0-.701-.164-1.234-.49-1.594-.793-.71-2.026-.71-2.82 0-.309.333-.476.833-.49 1.49H.474V1.734c.193-.105.412-.228.655-.33.394-.18.803-.333 1.221-.455C2.885.796 3.43.682 3.983.608 4.682.518 5.386.476 6.09.481c1.879 0 3.308.398 4.248 1.183.94.786 1.367 1.844 1.367 3.276.016.744-.189 1.476-.59 2.113-.16.248-.35.477-.565.683-.226.214-.436.4-.624.557l-.174.144v.72l.215.14c.214.141.45.312.7.51.245.202.463.431.65.683.214.29.384.608.504.945.143.41.211.839.203 1.27.008.668-.116 1.332-.367 1.956-.234.568-.607 1.075-1.088 1.477-.555.449-1.205.778-1.905.967-.908.252-1.85.373-2.795.36z" transform="translate(2.712 2.604)"></path><path fill="url(#prefix__b)" d="M9.745 9.12v-.683l.174-.144c.188-.157.398-.343.624-.557.215-.206.405-.435.564-.683.402-.637.607-1.37.59-2.113 0-1.432-.447-2.504-1.366-3.276-.031-.025-.067-.045-.098-.07.827.762 1.231 1.791 1.231 3.146.008.403-.048.805-.166 1.193-.1.32-.243.625-.424.91-.161.247-.35.476-.564.683-.224.214-.434.4-.624.556l-.174.143v.722l.214.139.02.034z" opacity=".5" transform="translate(2.712 2.604)"></path><path fill="url(#prefix__c)" d="M3.569 12.184c0 .683.171 1.193.476 1.534.071.08.15.151.238.214l-.014-.014c-.326-.35-.49-.885-.49-1.593v-.144l-.21.003z" opacity=".5" transform="translate(2.712 2.604)"></path><path fill="url(#prefix__d)" d="M11.814 11.435c-.12-.337-.29-.655-.504-.945-.187-.252-.406-.481-.65-.683l-.031-.023c.163.153.313.32.447.497.482.645.733 1.422.714 2.215.01.668-.113 1.331-.364 1.955-.236.568-.61 1.075-1.09 1.477-.556.449-1.205.78-1.905.97-.909.247-1.85.364-2.795.349-.663.004-1.326-.042-1.981-.14-.527-.08-1.047-.195-1.557-.343-.407-.116-.8-.268-1.177-.455-.164-.085-.314-.169-.457-.25v.063c.205.127.436.255.69.385.376.188.77.34 1.177.455.51.147 1.03.261 1.557.341.654.1 1.316.147 1.979.142.945.016 1.888-.102 2.797-.351.7-.189 1.35-.519 1.905-.967.48-.403.854-.91 1.088-1.478.251-.624.375-1.287.367-1.955.005-.428-.066-.854-.21-1.26z" opacity=".5" transform="translate(2.712 2.604)"></path><path fill="url(#prefix__e)" d="M11.531 6.133c.118-.387.174-.79.167-1.193 0-1.432-.448-2.504-1.367-3.276C9.411.893 7.961.481 6.083.481 5.38.476 4.675.519 3.976.608 3.423.682 2.877.796 2.343.95c-.418.122-.827.275-1.222.455-.238.114-.461.228-.654.33v3.772H3.8c.017-.656.181-1.156.49-1.489.793-.71 2.027-.71 2.82 0 .326.349.49.881.49 1.594.024.508-.145 1.008-.476 1.407-.322.366-.824.553-1.493.553H4.588v1.083L10.96 7.29c.052-.068.102-.14.15-.216.182-.295.323-.61.421-.94z" transform="translate(2.712 2.604)"></path><path fill="url(#prefix__f)" d="M4.54 8.195l-.257.055V7.166h1.05c.67 0 1.172-.186 1.493-.553.331-.399.5-.898.476-1.407 0-.701-.164-1.234-.49-1.593-.01-.012-.022-.022-.033-.032.107.068.205.149.29.241.326.348.49.881.49 1.594.024.508-.145 1.008-.476 1.406-.321.367-.823.554-1.493.554H4.54v.82zM.421 1.555c.193-.105.412-.216.655-.33.395-.181.803-.333 1.222-.456C2.832.616 3.378.502 3.93.428 4.629.338 5.333.296 6.038.3c1.779 0 3.15.362 4.088 1.068-.033-.03-.064-.064-.097-.093C9.089.489 7.659.09 5.78.09 5.076.086 4.372.13 3.674.22 3.12.292 2.575.407 2.04.56c-.418.123-.826.275-1.221.455-.238.114-.462.228-.655.33v3.772h.257V1.555z" opacity=".5" transform="translate(2.712 2.604) translate(.302 .392)"></path><path fill="url(#prefix__g)" d="M3.874 4.9c.056-.325.201-.63.421-.882.094-.1.202-.189.322-.262L6.73.496c-.212 0-.429-.015-.65-.015-.705-.005-1.409.038-2.107.127-.379.055-.729.119-1.057.194L.464 4.688v.819H3.47l.405-.608z" transform="translate(2.712 2.604)"></path><path fill="url(#prefix__h)" d="M11.633 4.075c-.102-.847-.499-1.636-1.126-2.242L7.58 5.95c-.039.385-.195.751-.45 1.052-.157.177-.357.314-.584.398l-.685.958L9.43 7.59c.588-.904 1.433-2.267 2.202-3.515z" transform="translate(2.712 2.604)"></path></g><g fill-rule="nonzero"><path fill="#E90D3A" d="M.191 3.56c-.007-.877.277-2.11.965-2.81.738-.75 1.67-.863 2.45-.59.85.3 1.285 1.075 1.359 2.046.9-.745 1.868-1.337 3.03-1.397 1.331-.07 2.414.805 2.596 1.926.205 1.26-.151 2.25-.802 3.06C7.72 8.379 3.604 9.513 2.068 8.4 1.075 7.68.209 5.723.19 3.56z" transform="translate(10.819 12.19)"></path><path fill="#D10B3A" d="M4.632 2.415l.332-.209C4.89 1.256 4.49.538 3.737.213c.587.525.981 1.304.895 2.202zM10.591 2.736c-.07-.444-.222-.696-.433-.982.207.622.575 1.912-.89 3.605C7.75 7.113 5.376 8.57 3.262 8.803 5.35 8.93 8.227 7.747 9.79 5.796c.649-.81 1.007-1.753.8-3.06z" transform="translate(10.819 12.19)"></path><path fill="#FFF" d="M2.422 5.196c-.661.239-.824.87-1.115.767-.66-.235-.914-1.636-.93-2.049C.294 1.762 1.565.724 2.034.55c.456-.17.95-.123 1.288.135.316.242.487.623.62 1.02.081.248.072.82.357.927.32.121.909-.409 1.188-.61.534-.384 1.141-.702 1.78-.822 1.03-.192 1.781.23 2.299.97.077.112.148.227.193.357.257.738-.295 1.7-1.004 2.173-.623.416-1.36.777-2.054.678-1.132-.164-2.298-.897-4.279-.182z" opacity=".25" transform="translate(10.819 12.19)"></path><path fill="#FFF" d="M1.982.83c-.258.116-.487.39-.527.703-.034.259.066.32.135.351.07.033.168.003.244-.053.078-.055.14-.13.206-.2.151-.16.335-.296.534-.36.141-.046.285-.175.218-.312-.074-.155-.327-.347-.81-.13zM6.747 1.67c-.144.066-.295.173-.327.314-.03.128.056.24.167.297.11.057.246.073.372.104.427.104.774.399.927.79.1.255.164.591.46.647.2.037.431-.089.558-.26.126-.173.164-.38.167-.574.01-1.115-1.143-1.87-2.324-1.319z" opacity=".5" transform="translate(10.819 12.19)"></path></g></g></svg>